<svg viewBox="0 0 32 32" xmlns="http://www.w3.org/2000/svg"><path d="m19.646484 2-.251953.1230469c-.244.121-.262984.1264375-.833984.1484375l-.587891.0214844-.238281.1308593c-.222.122-.247766.1268438-.384766.0898438-.095-.029-.187437-.0691407-.273437-.1191407-.102-.053-.213125-.0885156-.328125-.1035156-.108-.014-.215359-.0392187-.318359-.0742187-.101001-.042-.147657-.0395156-.347657.0214843-.106.035-.214172.0602657-.326172.0722657-.14.019-.279062.0497969-.414062.0917969-.175.0509999-.354344.0823125-.402344.0703124-.12-.0299999-.394422.0985625-.482422.2265626-.16.274-.457078.7248281-.330078 1.0488281.186.246.857797.0595625.841797.4765625-.117.49-.302656.9595937-.472656 1.4335937l-.619141-.1386719c.409-1.3799999.346516-.8539374-.771484-1.5859374.029-.1290001.072859-.2540469.130859-.3730469.153-.223.294922-.4601875.294922-.4921875.015-.047.041219-.0899532.074219-.1269532.09-.115.099625-.3798437.015625-.4648437s-.171672-.0939844-.638672-.0839844c-.379.006-.440094.017375-.621094.109375-.115.059-.364078.2559375-.580078.4609375l-.376953.3574219.011719.7109375.011718.7109375.132813.2734375c.132.273.276187.42525.617187.65625.052.032.100485.0674219.146485.1074219.011.013.122953.1060312.251953.2070312.128.101.284656.2223438.347656.2773438.216.187.461516.3316875.728516.4296875.487.173.617031.3431719.707031.9511718.047.3130001.184531.7620938.269531.8710938.024.029.08561.265.22461.875.022.1.046687.2395469.054687.3105469s.030781.2019687.050781.2929687c.058.3230004.095375.6495624.109375.9765624 0 .134-.014047.161516-.123047.228516-.055.037-.11664.063172-.18164.076172-.08 0-.226828-.298422-.298828-.607422-.109-.484-.263875-.6884221-.546875-.7324221-.237-.037-.64486-.335875-1.25586-.921875-.078-.065-.164812-.11725-.257812-.15625-.408-.17-.650031-.3371719-.832031-.5761719-.113-.148-.123047-.1833437-.123047-.4023438.007-.204.02764-.408375.05664-.609375.07-.4799999.067141-.7516718-.005859-1.0136718-.094-.328-.341625-.4634375-.515625-.2734375-.157.171-.453078.9856562-.580078 1.5976562-.057.276-.120188.4318906-.242188.5878907-.051.0579999-.069828.1378906-.048828.2128906.027.142.255125.6533281.328125.7363281.053.071.100578.1466094.142578.2246094l.091797.1640625-.074219.2539062c-.121999.4180004-.122749.3933904.03125.5253904.077.065.415954.394657.751954.722656.702.692001.819687.760922 1.304687.794922.3.022.421797.065969.466797.167969.013.031.028203.328156.033203.660156.023 1.396.018844 1.37636.339844 1.81836l.179687.25.048828.476562c.060001.574.060001 2.369516 0 3.228516l-.041015.597656.107422.152344c.058.084.377078.425812.705078.757812.457.459.630609.660844.724609.839844l.123047.234375-.023437.916016c-.013.504-.0415.973922-.0625 1.044922s-.06275.507703-.09375.970703c-.052.789-.097579 1.390343-.142578 1.902343-.011.121-.036641.434313-.056641.695313-.058.784-.143641 1.619203-.181641 1.783203-.064.282-.04875.332922.15625.544922.244.25.648594.557578.683594.517578.061-.07.112813-.675406.132812-1.566406.012001-.523.026204-1.043344.033204-1.152344.008-.176.037375-1.063656.109375-3.347656.011-.342.028062-.768266.039062-.947266.021-.331-.008859-.578562-.130859-1.101562-.043-.187-.07375-.375407-.09375-.566406-.018-.168001-.056281-.333188-.113282-.492188-.049-.12-.079312-.225375-.070312-.234375s.000469-.046031-.019531-.082031c-.057-.107-.105375-.701563-.109375-1.351563s-.053235-.920062-.240235-1.289062c-.094-.185-.577906-.881985-.753906-1.083985l-.109375-.123046.019531-.667969c.022-.705.067063-1.039125.164063-1.203125.081-.138.154047-.113016.248047.083984.088.185.175593.281141.558593.619141.285001.25.40625.410015.40625.541015-.014999.089-.046796.173954-.091796.251954-.138.266-.124313.552437.054687 1.148437.079.263.153969.557344.167969.652344.012.091.039078.177765.080078.259765.05.079.056328.084297.111328.029297.046-.07.075938-.149422.085938-.232422.013-.097.041406-.300172.066406-.451171.025-.151.059078-.352219.080078-.449219.064-.278.049937-.568844-.039062-.839844-.044001-.136-.094282-.256578-.113282-.267578-.046-.029-.044187-.249828.007813-.423828s.233406-.3545.691406-.6875c.193-.14.397125-.323297.453125-.404297.057-.081.116813-.146484.132812-.146484.116001 0 .104469.499796-.019531.841796-.1.268-.181187.542266-.242187.822266-.039.194-.127953.595766-.251953 1.134766-.115.507-.303703 1.013484-.470703 1.271484-.089.138-.102282.190297-.113282.529297s.068735 1.142516.177735 1.853515c.023.231.029531.463313.019531.695313-.012.415-.005313.498.054687.625.12.254.143391.454469.150391 1.355469.004.483.020109.991812.037109 1.132812.035.288.046672 1.7575.013672 1.8125-.022.036-.144687.828969-.179687 1.167969-.022.221-.046172.705219-.076172 1.574219-.015945.476357.021484 1.158971.076172 1.339844.050486.040053.691474-.459083.835937-.667969l.09961-.144531v-1.041016c0-.642-.016969-1.120141-.042969-1.244141-.023-.111-.049594-.295297-.058594-.404297-.012-.129-.033547-.256812-.060547-.382812-.048-.213-.058203-.970063-.033203-2.414063.019-1.106.011766-1.15625-.240234-2.03125-.038-.159-.0595-.321375-.0625-.484375l-.003906-.285156.21875-.191406c.629999-.555.790515-.882047.603515-1.248047-.119-.239-.151375-.597625-.109375-1.265625.019-.331.053219-.727906.074219-.878906s.044687-.367563.054687-.476563c.055-.627.179344-1.132812.277344-1.132812.058 0 .21886-.41125.25586-.65625.059999-.388.032078-1.182532-.044922-1.269531-.038-.047001-.066938-.101204-.085938-.158204-.032-.09-.069281-.177671-.113281-.263672-.063-.122999-.093891-.260437-.087891-.398437 0-.265.067375-.419875.234375-.546875.064-.05.292953-.250312.501953-.445312l.382813-.355469.125-.394531c.126-.397001.359516-.939376.478515-1.109376.035-.049.143235-.2464995.240235-.4374995.213-.42.449016-.7256406.916015-1.1816406l.353516-.34375-.044922-.1347657c-.024-.075-.047781-.3427031-.050781-.5957031l-.005859-.4609375-.244141-.2226562-.242187-.2246094.033203-.4042969c.019-.221.053125-.5761093.078125-.7871093.077-.6540001.007-.8227501-.25-.59375-.149.1319999-.249688.3389062-.304688.6289062-.026.142-.080203.2783906-.158203.4003906-.083.127-.13725.2728282-.15625.4238282-.156.9339999-.314125 1.3393125-.703125 1.8203124-.221.2770001-.507031.4966719-.832031.6386719-.141.067-.372719.1885781-.511719.2675781-.139.0790001-.385875.2158282-.546875.2988282-.55.282-.634906.3865937-.753906.9335936-.132.606-.148813.64911-.257813.662109-.077.009001-.107781-.011953-.175781-.126953s-.080078-.190031-.080078-.457031c-.003-.164.01564-.327328.056641-.486328.079-.234.069937-.340375-.039063-.484375-.123-.16-.146219-.3754375-.074219-.5234375s.072-.370125 0-.578125c-.035-.105-.061125-.2132656-.078125-.3222656-.019-.137-.0095-.1759532.0625-.2519531.032-.0390001.072188-.0698438.117188-.0898438.049-.022.093859-.0527969.130859-.0917969.054-.055.247688-.200125.429688-.328125.134-.089.261812-.1889219.382812-.2949219.037-.0409999.083766-.07275.134766-.09375.062-.0359999.108765-.0912031.134765-.1582031.058-.105.140235-.1947187.240235-.2617187.085-.056.160609-.1260781.224609-.2050782.029-.055.078047-.0683593.248047-.0683593.214 0 .383719-.0532031.886719-.2832031.41-.188.506297-.3006875.779297-.9296876.026-.0519999.044593-.1070624.058593-.1640624 0-.078.265766-.4317188.384766-.5117188.132-.088.147859-.1419062.130859-.3789062-.013-.0760001-.037265-.1497501-.072265-.21875-.048-.104-.086235-.2112657-.115235-.3222657-.044-.169-.04214-.2166093.00586-.3496093.055-.1530001.054781-.1553438-.074219-.4023438-.093-.179-.169625-.273125-.265625-.328125zm-3.05664 27.992188c-.001236-.000981-.011217.005555-.011719.003906h.011719c-.000189-.000612.000188-.003283 0-.003906zm5.193359-20.851563c-1.153 1.186-1.507875 2.098359-1.671875 2.943359 2.046 2.114 3.517578 3.71875 3.517578 3.71875 1.957 2.816.552125 5.25686-2.546875 4.88086v.001953c1.454 1.612 5.994766.488 5.759766-3.375-.025-.424-.179594-4.696922-5.058594-8.169922zm-12.2304686 1.751953v.003906c-4.544 3.793-4.6859375 8.076719-3.3359375 10.261719 1.131 1.834 4.6204841 1.868531 5.3964841.269531-3.7599997.786-5.1276404-1.927484-3.4316404-4.771484.421-.711 1.8073125-1.898 4.1953124-3.875-.234-.533-.554625-.686875-1.265625-.921875-.582-.192-.406594-.267797-1.5585936-.966797zm4.2128906 9.425781c-.034.034-.025281 1.206875.011719 1.546875.019.182.039062.362344.039062.402344.004.094.1325.890344.1875 1.152344.023.11.055266.343578.072266.517578.008.12.025687.239469.054687.355469.043.195.074703.391843.095703.589843.021001.198001.051751.394844.09375.589844.001.004.00486.006813.00586.007813.014.013.033875.014.046875 0 .039-.039.103484-.798.146484-1.75.018-.402.040781-.814063.050781-.914063s.02711-.388625.03711-.640625.028969-.615547.042969-.810547l.02539-.353515-.289062-.28711c-.257-.255-.566094-.46125-.621094-.40625zm4.455078.353516c-.0415.005-.109562.049266-.226562.134766-.234.171-.289063.267046-.289063.498047 0 .198999.128063 1.107015.164063 1.166015.067.11.136531.789406.144531 1.441406.005.402.026828.824594.048828.933594.075.378.125 1.115766.125 1.884766 0 .422.007578.780875.017578.796875h.007813c.035.058.1485-.090188.1875-.242188.074-.303.118375-1.196812.109375-2.257812-.009-.877-.000313-1.167688.054687-1.554688.088-.635.08875-.65275.09375-.96875.004-.299-.005703-.362453-.220703-1.189453-.063-.24-.127578-.486875-.142578-.546875-.017-.0665-.032719-.100703-.074219-.095703z"/></svg>