<svg xmlns="http://www.w3.org/2000/svg"  viewBox="0 0 100 100" width="100px" height="100px"><path fill="#75849d" d="M81.995,36.027l-0.293,9.224c-0.055,1.328-0.822,2.529-2.029,3.129l-1.7,0.855l-3.784-9.079	l0.311-1.765l1.645-9.17l3.235,1.983c1.353,0.837,2.266,2.183,2.522,3.693C81.977,35.263,82.014,35.645,81.995,36.027z"/><path fill="#1f212b" d="M77.975,50.236c-0.117,0-0.235-0.021-0.348-0.062c-0.26-0.097-0.469-0.297-0.575-0.553l-3.784-9.078	c-0.073-0.177-0.095-0.37-0.062-0.558l1.957-10.938c0.059-0.325,0.273-0.601,0.575-0.735c0.303-0.136,0.65-0.112,0.932,0.06	l3.235,1.983c1.595,0.986,2.682,2.582,2.986,4.379c0.088,0.439,0.124,0.897,0.104,1.335l-0.292,9.215	c-0.07,1.709-1.06,3.236-2.583,3.994l-1.695,0.853C78.283,50.199,78.129,50.236,77.975,50.236z M75.226,40.042l3.259,7.817	l0.74-0.372c0.874-0.435,1.439-1.307,1.479-2.277l0.292-9.214c0-0.006,0-0.012,0-0.018c0.014-0.276-0.011-0.574-0.072-0.884	c-0.214-1.259-0.966-2.356-2.068-3.038l-1.983-1.216L75.226,40.042z"/><path fill="#75849d" d="M18.005,36.027l0.293,9.224c0.055,1.328,0.822,2.529,2.029,3.129l1.7,0.855l3.784-9.079l-0.311-1.765	l-1.645-9.17l-3.235,1.983c-1.353,0.837-2.266,2.183-2.522,3.693C18.023,35.263,17.986,35.645,18.005,36.027z"/><path fill="#1f212b" d="M22.025,50.236c-0.154,0-0.309-0.036-0.449-0.106l-1.699-0.854c-1.52-0.756-2.509-2.283-2.579-3.982	l-0.292-9.225c-0.021-0.438,0.017-0.896,0.109-1.363c0.299-1.769,1.386-3.364,2.977-4.349l3.239-1.985	c0.28-0.172,0.63-0.195,0.932-0.06c0.302,0.135,0.517,0.41,0.575,0.735l1.957,10.938c0.032,0.188,0.011,0.381-0.062,0.558	l-3.784,9.078c-0.106,0.256-0.315,0.456-0.575,0.553C22.261,50.215,22.143,50.236,22.025,50.236z M23.128,30.841l-1.987,1.218	c-1.099,0.68-1.851,1.777-2.059,3.008c-0.067,0.338-0.092,0.636-0.078,0.912c0,0.006,0,0.012,0,0.018l0.292,9.224	c0.04,0.961,0.605,1.833,1.476,2.266l0.744,0.374l3.259-7.817L23.128,30.841z"/><path fill="#656566" d="M49.993,58.639c-12.774,0-23.111,3.761-23.111,12.133c0,6.067,12.606,18.2,23.111,18.2	s23.111-12.133,23.111-18.2C73.104,62.401,62.767,58.639,49.993,58.639z"/><path fill="#8e9db5" d="M78.766,66.974c-0.058,1.184-0.693,2.268-1.719,2.918c-3.871,2.369-12.22,6.096-19.644,7.901	c-1.791,0.448-3.539,0.78-5.142,0.924c-0.794,0.101-1.546,0.145-2.268,0.145c-0.722,0-1.473-0.043-2.268-0.145	c-1.603-0.144-3.351-0.477-5.142-0.924c-7.424-1.806-15.773-5.532-19.644-7.901c-0.722-0.462-1.257-1.127-1.517-1.892	c-0.101-0.332-0.173-0.679-0.202-1.026c-0.274-5.561-0.072-13.838,0.592-22.721c0.303-4.016,0.708-8.147,1.199-12.22	c0-0.058,0.029-0.087,0.029-0.144c1.358-11.31,10.631-19.933,21.883-20.829c0.419-0.043,0.838-0.058,1.257-0.072	c0.231-0.014,0.462-0.014,0.708-0.014h6.211c0.246,0,0.477,0,0.708,0.014c0.419,0.014,0.838,0.029,1.257,0.072	c11.252,0.896,20.526,9.519,21.883,20.829c0,0.058,0.029,0.087,0.029,0.144c0.491,4.073,0.896,8.205,1.199,12.22	C78.839,53.136,79.041,61.413,78.766,66.974z"/><path fill="#adbed7" d="M42.579,77.797c-7.414-1.816-15.771-5.541-19.635-7.908c-0.721-0.459-1.257-1.119-1.516-1.89	c0.481-5.082,2.848-10.494,6.176-12.971C40.546,52.276,46.758,75.192,42.579,77.797z"/><path fill="#adbed7" d="M57.407,77.797c7.414-1.816,15.771-5.541,19.635-7.908c0.721-0.459,1.257-1.119,1.516-1.89	c-0.481-5.082-2.848-10.494-6.176-12.971C59.44,52.276,53.229,75.192,57.407,77.797z"/><path fill="#adbed7" d="M57.215,40.324H42.771l2.152-29.264c0.419-0.043,0.838-0.058,1.257-0.072	c0.231-0.014,0.462-0.014,0.708-0.014h6.211c0.246,0,0.477,0,0.708,0.014c0.419,0.014,0.838,0.029,1.257,0.072L57.215,40.324z"/><path fill="#1f212b" d="M57.216,40.824H42.771c-0.139,0-0.271-0.058-0.366-0.159c-0.095-0.103-0.143-0.239-0.133-0.378	l2.152-29.265c0.019-0.241,0.206-0.435,0.447-0.46c0.417-0.044,0.834-0.059,1.252-0.073c0.267-0.017,0.508-0.017,0.765-0.017h6.211	c0.257,0,0.498,0,0.739,0.016c0.443,0.016,0.86,0.03,1.277,0.074c0.241,0.025,0.43,0.219,0.447,0.461l0.152,2.08	c0.02,0.275-0.188,0.515-0.463,0.535c-0.246,0.027-0.515-0.187-0.535-0.463l-0.121-1.653c-0.256-0.017-0.512-0.025-0.768-0.034	c-0.273-0.016-0.495,0.001-0.729-0.016h-6.211c-0.23,0-0.456-0.001-0.677,0.014c-0.291,0.011-0.56,0.02-0.82,0.036l-2.082,28.302	h13.369l-1.243-16.897c-0.02-0.275,0.187-0.516,0.462-0.536c0.268-0.016,0.516,0.187,0.536,0.462l1.282,17.435	c0.01,0.139-0.038,0.275-0.133,0.378C57.487,40.767,57.354,40.824,57.216,40.824z"/><path fill="#1f212b" d="M55.772,21.223c-0.259,0-0.479-0.2-0.498-0.464l-0.345-4.694c-0.02-0.275,0.187-0.515,0.463-0.535	c0.25-0.025,0.515,0.187,0.535,0.463l0.345,4.694c0.02,0.275-0.187,0.515-0.463,0.535C55.798,21.223,55.785,21.223,55.772,21.223z"/><path fill="#1f212b" d="M21.429,68.499c-0.017,0-0.032-0.001-0.048-0.002c-0.275-0.026-0.477-0.271-0.451-0.545	c0.523-5.521,3.086-10.876,6.376-13.325c0.22-0.164,0.533-0.12,0.7,0.103c0.165,0.222,0.119,0.535-0.103,0.7	c-3.029,2.254-5.487,7.442-5.978,12.616C21.901,68.305,21.684,68.499,21.429,68.499z"/><path fill="#1f212b" d="M78.558,68.499c-0.255,0-0.473-0.194-0.497-0.453c-0.49-5.174-2.948-10.362-5.978-12.616	c-0.222-0.165-0.268-0.479-0.103-0.7c0.166-0.222,0.48-0.266,0.7-0.103c3.29,2.449,5.853,7.804,6.376,13.325	c0.025,0.274-0.176,0.519-0.451,0.545C78.59,68.498,78.574,68.499,78.558,68.499z"/><path fill="#75849d" d="M21.816,44.257c2.293,1.578,5.788,5.267,5.788,10.772c5.547,0,14.975,10.989,14.975,22.769	C44.909,69.229,45.371,44.257,21.816,44.257z"/><path fill="#75849d" d="M78.17,44.257c-2.293,1.578-5.788,5.267-5.788,10.772c-5.547,0-14.975,10.989-14.975,22.769	C55.078,69.229,54.615,44.257,78.17,44.257z"/><path fill="#1f212b" d="M42.5,77.723c-0.276,0-0.5-0.224-0.5-0.5c0-11.187-8.98-21.694-14.396-21.694	c-0.276,0-0.5-0.224-0.5-0.5c0-4.811-2.878-8.506-5.571-10.359c-0.228-0.157-0.285-0.468-0.129-0.695	c0.158-0.23,0.471-0.285,0.695-0.129c2.814,1.937,5.814,5.742,5.996,10.708C33.93,55.118,43,65.471,43,77.223	C43,77.499,42.776,77.723,42.5,77.723z"/><path fill="#1f212b" d="M57.5,77.723c-0.276,0-0.5-0.224-0.5-0.5c0-11.752,9.062-22.104,14.891-22.67	c0.182-4.966,3.182-8.771,5.996-10.708c0.224-0.155,0.536-0.102,0.695,0.129c0.156,0.228,0.099,0.538-0.129,0.695	c-2.693,1.854-5.571,5.549-5.571,10.359c0,0.276-0.224,0.5-0.5,0.5C66.972,55.528,58,66.036,58,77.223	C58,77.499,57.776,77.723,57.5,77.723z"/><path fill="#bad3e9" d="M76.968,32.037c-8.375,4.734-21.595,6.459-26.975,6.459s-18.6-1.725-26.975-6.459	c-0.499,4.073-0.906,8.202-1.202,12.22c11.981,2.477,20.467,14.697,20.763,33.541c1.793,0.44,3.55,0.771,5.14,0.917	c0.795,0.11,1.553,0.147,2.274,0.147c0.721,0,1.479-0.037,2.274-0.147c1.59-0.147,3.346-0.477,5.14-0.917	c0.296-18.844,8.782-31.064,20.763-33.541C77.874,40.238,77.467,36.11,76.968,32.037z"/><path fill="#3b3634" d="M25.033,36.661l1.054,3.688c0.499,1.706,1.812,3.083,3.513,3.67l0.056,0.018l3.698,1.284 l1.849,0.642l4.493,1.56c0.37,0.128,0.721,0.275,1.054,0.44c2.866,1.431,4.844,4.257,5.103,7.505l1.83,22.935l0.037,0.312 c0.795,0.11,1.553,0.147,2.274,0.147c0.721,0,1.479-0.037,2.274-0.147l0.037-0.312l1.83-22.935 c0.296-3.633,2.718-6.734,6.157-7.945l10.095-3.504c1.701-0.587,3.014-1.963,3.513-3.67l1.054-3.688 c-12.018,5.505-21.262,5.505-24.96,5.505c-1.83,0-5.029,0-9.244-0.679c-1.701-0.257-3.55-0.642-5.547-1.174 c-0.61-0.147-1.22-0.312-1.849-0.514c-1.183-0.349-2.422-0.752-3.698-1.229C28.177,38.018,26.623,37.394,25.033,36.661z"/><path fill="#444445" d="M49.993,79.361c-0.844,0-1.61-0.05-2.343-0.151l-0.383-0.053l-0.082-0.694l-1.832-22.955 c-0.24-3.01-2.09-5.729-4.828-7.098c-0.309-0.153-0.644-0.293-0.995-0.416l-10.039-3.485c-1.905-0.657-3.337-2.153-3.884-4.02 l-1.354-4.74l0.99,0.457c1.403,0.648,2.903,1.268,4.586,1.894c1.175,0.439,2.374,0.838,3.666,1.219 c0.578,0.186,1.171,0.351,1.823,0.507c1.933,0.515,3.78,0.906,5.505,1.167c4.181,0.673,7.304,0.673,9.17,0.673 c3.51,0,12.833,0,24.752-5.459l0.987-0.453l-1.353,4.733c-0.548,1.869-1.979,3.365-3.83,4.004l-10.095,3.505 c-3.258,1.146-5.544,4.097-5.822,7.514l-1.914,23.648l-0.383,0.053C51.604,79.312,50.837,79.361,49.993,79.361z M48.173,78.268 c1.145,0.126,2.498,0.126,3.642,0l1.822-22.84c0.31-3.811,2.856-7.098,6.488-8.377l10.098-3.506 c1.546-0.533,2.741-1.781,3.197-3.337l0.757-2.652c-11.645,5.109-20.711,5.109-24.184,5.109c-1.896,0-5.069,0-9.323-0.686 c-1.757-0.265-3.641-0.664-5.597-1.185c-0.666-0.16-1.282-0.331-1.873-0.521c-1.303-0.384-2.523-0.789-3.72-1.236 c-1.319-0.491-2.53-0.979-3.671-1.479l0.758,2.653c0.455,1.553,1.65,2.801,3.195,3.334l10.097,3.505 c0.391,0.137,0.765,0.293,1.111,0.465c3.052,1.524,5.112,4.557,5.379,7.913L48.173,78.268z"/><path fill="#bad3e9" d="M52.348,10.973v20.222c0,1.3-1.054,2.34-2.354,2.34c-1.3,0-2.34-1.04-2.34-2.34V10.973H52.348z"/><path fill="#1f212b" d="M49.993,89.973c-10.221,0-21.753-10.498-23.775-17.182c-1.49-0.731-2.796-1.437-3.796-2.05	c-0.929-0.59-1.614-1.447-1.942-2.424c-0.146-0.438-0.231-0.871-0.254-1.293c-0.284-5.7-0.067-14.025,0.594-22.843	c0.297-4.037,0.703-8.165,1.207-12.268l0,0c0.004-0.038,0.01-0.078,0.015-0.11c0.001-0.012,0.002-0.023,0.003-0.034	C23.51,19.697,33.875,10.335,46.156,9.991c0.193-0.018,0.462-0.019,0.73-0.019H53.1c0.269,0,0.537,0.001,0.785,0.022	c12.226,0.34,22.592,9.702,24.059,21.774c0.001,0.012,0.002,0.023,0.003,0.035c0.009,0.049,0.016,0.097,0.019,0.147	c0.501,4.089,0.906,8.204,1.202,12.229l0,0c0.661,8.817,0.878,17.143,0.594,22.84c-0.071,1.52-0.891,2.91-2.192,3.717	c-1.004,0.616-2.31,1.321-3.8,2.053C71.746,79.475,60.214,89.973,49.993,89.973z M24.015,32.122	c-0.001,0.012-0.002,0.024-0.004,0.036c-0.499,4.07-0.902,8.165-1.197,12.172c-0.655,8.739-0.87,16.974-0.59,22.592	c0.013,0.238,0.063,0.495,0.152,0.76c0.183,0.542,0.574,1.026,1.104,1.362c1.022,0.627,2.416,1.372,4.018,2.146	c0.27,0.131,0.466,0.375,0.536,0.666c1.465,6.062,12.643,16.116,21.959,16.116s20.494-10.054,21.959-16.116	c0.07-0.291,0.267-0.535,0.536-0.666c1.602-0.774,2.995-1.52,4.031-2.154c0.748-0.464,1.202-1.234,1.243-2.111	c0.28-5.621,0.065-13.855-0.59-22.593c0-0.001,0-0.001,0-0.002c-0.295-4.007-0.698-8.102-1.197-12.172	c-0.002-0.013-0.003-0.024-0.004-0.037c-0.009-0.049-0.016-0.097-0.019-0.147c-1.364-11.079-10.893-19.667-22.18-19.982	c-0.25-0.02-0.457-0.019-0.674-0.019h-6.213c-0.209,0.003-0.424-0.001-0.619,0.015C34.913,12.307,25.377,20.913,24.03,32.01h-0.001	C24.025,32.049,24.021,32.09,24.015,32.122z M24.019,32.038L24.019,32.038L24.019,32.038z M22.037,31.888L22.037,31.888	L22.037,31.888z"/><path fill="#1f212b" d="M64.986,53c-0.109,0-0.219-0.035-0.311-0.108c-0.216-0.171-0.253-0.485-0.081-0.702	c1.374-1.736,2.922-3.255,4.599-4.513c0.221-0.166,0.534-0.121,0.7,0.101c0.165,0.221,0.12,0.534-0.101,0.7	c-1.608,1.205-3.094,2.663-4.415,4.333C65.279,52.935,65.134,53,64.986,53z"/><path fill="#1f212b" d="M49.993,79c-0.842,0-1.608-0.049-2.343-0.15c-1.497-0.137-3.251-0.446-5.189-0.92	c-0.222-0.054-0.378-0.25-0.382-0.478c-0.28-17.712-8.083-30.28-20.363-32.8c-0.246-0.051-0.417-0.276-0.398-0.527	c0.292-3.933,0.715-8.185,1.223-12.297c0.021-0.165,0.122-0.31,0.271-0.385s0.325-0.07,0.47,0.01	c8.243,4.623,21.466,6.542,26.713,6.542s18.47-1.919,26.713-6.542c0.145-0.081,0.321-0.085,0.47-0.01s0.25,0.22,0.271,0.385	c0.508,4.112,0.931,8.364,1.223,12.297c0.019,0.251-0.152,0.477-0.398,0.527c-2.047,0.42-4.008,1.135-5.831,2.125	c-0.239,0.13-0.545,0.042-0.678-0.201c-0.132-0.242-0.042-0.546,0.201-0.678c1.78-0.967,3.688-1.684,5.676-2.133	c-0.271-3.561-0.647-7.368-1.096-11.085c-8.893,4.715-21.869,6.314-26.55,6.314s-17.657-1.6-26.55-6.314	c-0.448,3.716-0.824,7.524-1.096,11.084c12.427,2.799,20.332,15.486,20.724,33.283c1.743,0.411,3.32,0.683,4.693,0.809	c1.422,0.195,3.058,0.192,4.435,0.003c1.395-0.128,2.973-0.4,4.716-0.812c0.193-8.762,2.22-16.461,5.868-22.285	c0.146-0.233,0.456-0.305,0.689-0.158s0.305,0.455,0.158,0.689c-3.605,5.756-5.585,13.418-5.724,22.158	c-0.004,0.228-0.16,0.424-0.382,0.478c-1.938,0.474-3.692,0.783-5.212,0.923C51.602,78.951,50.835,79,49.993,79z"/><path fill="#1f212b" d="M50,79c-0.837,0-1.6-0.05-2.331-0.153c-1.485-0.14-3.231-0.458-5.165-0.942	c-4.848-1.214-10.769-3.45-15.839-5.984c-0.247-0.123-0.347-0.424-0.224-0.671c0.125-0.246,0.423-0.347,0.671-0.224	c5.009,2.503,10.854,4.712,15.634,5.908c1.886,0.473,3.581,0.782,5.039,0.92c1.416,0.199,3.036,0.196,4.407,0.003	c1.48-0.141,3.176-0.45,5.062-0.923c4.78-1.196,10.625-3.405,15.634-5.908c0.248-0.124,0.546-0.023,0.671,0.224	c0.123,0.247,0.023,0.548-0.224,0.671c-5.07,2.534-10.991,4.771-15.839,5.984c-1.934,0.484-3.68,0.803-5.188,0.945	C51.6,78.95,50.837,79,50,79z"/><path fill="#1f212b" d="M52.306,78.762c-0.014,0-0.027-0.001-0.041-0.002c-0.275-0.021-0.48-0.263-0.458-0.538l1.83-22.858	c0.311-3.798,2.857-7.075,6.488-8.35l10.099-3.493c1.545-0.531,2.74-1.774,3.196-3.325l0.757-2.641	c-10.003,4.379-18.635,5.315-24.184,5.315c-3.539,0-12.844-0.529-24.188-5.332l0.763,2.66c0.461,1.569,1.674,2.818,3.245,3.339	c0.64,0.224,1.764,0.611,2.871,0.993l7.175,2.482c3.589,1.239,6.197,4.595,6.491,8.352l1.83,22.857	c0.022,0.275-0.183,0.517-0.458,0.538c-0.273,0.024-0.517-0.182-0.538-0.458l-1.83-22.858c-0.264-3.366-2.604-6.374-5.821-7.485	l-7.176-2.482c-1.108-0.382-2.233-0.771-2.866-0.992c-1.875-0.621-3.329-2.12-3.883-4.007l-1.055-3.679	c-0.054-0.187,0.006-0.387,0.151-0.515c0.146-0.128,0.354-0.158,0.53-0.081c11.609,5.115,21.182,5.668,24.759,5.668	c5.631,0,14.496-0.982,24.752-5.665c0.177-0.081,0.386-0.052,0.534,0.076c0.148,0.127,0.208,0.329,0.154,0.517l-1.054,3.676	c-0.548,1.864-1.979,3.355-3.83,3.992l-10.096,3.492c-3.257,1.144-5.543,4.082-5.821,7.486l-1.83,22.857	C52.782,78.564,52.563,78.762,52.306,78.762z"/><path fill="#1f212b" d="M49.993,34.223c-1.662,0-3.014-1.28-3.014-2.854V10.973c0-0.276,0.224-0.5,0.5-0.5h5.041	c0.276,0,0.5,0.224,0.5,0.5v20.396C53.021,32.943,51.662,34.223,49.993,34.223z M47.979,11.473v19.896	c0,1.022,0.903,1.854,2.014,1.854c1.118,0,2.027-0.832,2.027-1.854V11.473H47.979z"/></svg>